<svg width="1600" height="900" viewBox="0 0 1600 900" fill="none" xmlns="http://www.w3.org/2000/svg">
  <defs>
    <linearGradient id="bg" x1="0" y1="0" x2="1600" y2="900" gradientUnits="userSpaceOnUse">
      <stop stop-color="#FFF6E9"/>
      <stop offset="0.55" stop-color="#FFFDF6"/>
      <stop offset="1" stop-color="#F6F0E5"/>
    </linearGradient>
    <linearGradient id="accent" x1="0" y1="0" x2="1" y2="1">
      <stop stop-color="#DD0000"/>
      <stop offset="1" stop-color="#FFCE00"/>
    </linearGradient>
    <filter id="soft" x="-20%" y="-20%" width="140%" height="140%">
      <feGaussianBlur stdDeviation="30"/>
    </filter>
  </defs>

  <rect width="1600" height="900" fill="url(#bg)"/>
  <circle cx="210" cy="120" r="170" fill="#DD0000" fill-opacity="0.13" filter="url(#soft)"/>
  <circle cx="1410" cy="770" r="190" fill="#FFCE00" fill-opacity="0.2" filter="url(#soft)"/>

  <rect x="88" y="86" width="1424" height="728" rx="36" fill="white" fill-opacity="0.88" stroke="#E8DDCB" stroke-width="2"/>

  <text x="140" y="170" font-family="Segoe UI, Arial, sans-serif" font-size="58" font-weight="800" fill="#1A2844">Nos Services</text>
  <text x="140" y="220" font-family="Segoe UI, Arial, sans-serif" font-size="30" font-weight="600" fill="#5B6679">Apercu visuel temporaire en attendant la video officielle</text>

  <g transform="translate(140 278)">
    <rect width="615" height="92" rx="20" fill="#FFF8EF" stroke="#EADCC8"/>
    <rect x="20" y="28" width="36" height="36" rx="10" fill="url(#accent)"/>
    <text x="78" y="58" font-family="Segoe UI, Arial, sans-serif" font-size="30" font-weight="700" fill="#22324C">Collecte d'emails d'entreprises</text>
  </g>

  <g transform="translate(140 390)">
    <rect width="615" height="92" rx="20" fill="#FFF8EF" stroke="#EADCC8"/>
    <rect x="20" y="28" width="36" height="36" rx="10" fill="url(#accent)"/>
    <text x="78" y="58" font-family="Segoe UI, Arial, sans-serif" font-size="30" font-weight="700" fill="#22324C">Envoi des contacts aux clients</text>
  </g>

  <g transform="translate(140 502)">
    <rect width="615" height="92" rx="20" fill="#FFF8EF" stroke="#EADCC8"/>
    <rect x="20" y="28" width="36" height="36" rx="10" fill="url(#accent)"/>
    <text x="78" y="58" font-family="Segoe UI, Arial, sans-serif" font-size="30" font-weight="700" fill="#22324C">Traduction des dossiers</text>
  </g>

  <g transform="translate(845 278)">
    <rect width="615" height="92" rx="20" fill="#FFF8EF" stroke="#EADCC8"/>
    <rect x="20" y="28" width="36" height="36" rx="10" fill="url(#accent)"/>
    <text x="78" y="58" font-family="Segoe UI, Arial, sans-serif" font-size="30" font-weight="700" fill="#22324C">Informations et consultations</text>
  </g>

  <g transform="translate(845 390)">
    <rect width="615" height="92" rx="20" fill="#FFF8EF" stroke="#EADCC8"/>
    <rect x="20" y="28" width="36" height="36" rx="10" fill="url(#accent)"/>
    <text x="78" y="58" font-family="Segoe UI, Arial, sans-serif" font-size="30" font-weight="700" fill="#22324C">Conseils de candidature</text>
  </g>

  <g transform="translate(845 502)">
    <rect width="615" height="200" rx="24" fill="#1E2C4A"/>
    <text x="36" y="72" font-family="Segoe UI, Arial, sans-serif" font-size="34" font-weight="800" fill="#FFFFFF">Service Carriere Allemagne</text>
    <text x="36" y="120" font-family="Segoe UI, Arial, sans-serif" font-size="27" font-weight="600" fill="#DCE6FF">Emploi • Ausbildung • Accompagnement</text>
    <text x="36" y="164" font-family="Segoe UI, Arial, sans-serif" font-size="24" font-weight="600" fill="#FFCE00">www.service-for-deutschland.netlify.app</text>
  </g>
</svg>
